<svg width="32" height="32" viewBox="0 0 32 32" fill="none" xmlns="http://www.w3.org/2000/svg">
<path fill-rule="evenodd" clip-rule="evenodd" d="M29.3327 18.945V14.668C29.3327 13.7161 28.7528 13.0216 28.196 12.5828C27.6241 12.1321 26.8793 11.7846 26.0779 11.5174C24.4609 10.9784 22.3119 10.668 19.9993 10.668C17.6868 10.668 15.5377 10.9784 13.9208 11.5174C13.1193 11.7846 12.3745 12.1321 11.8027 12.5828C11.2459 13.0216 10.666 13.7161 10.666 14.668V18.8945C10.7303 19.1064 10.8968 19.3558 11.2542 19.641C11.7497 20.0362 12.5056 20.4068 13.4689 20.7213C15.3867 21.3473 17.8699 21.6697 19.9989 21.6697C22.1288 21.6697 24.6167 21.3501 26.5387 20.7254C27.5043 20.4116 28.262 20.0414 28.7587 19.6457C29.0903 19.3817 29.2583 19.1477 29.3327 18.945ZM14.7641 15.2886C14.1285 15.0768 13.7052 14.8536 13.4652 14.668C13.7052 14.4824 14.1285 14.2592 14.7641 14.0473C16.0427 13.6212 17.8936 13.3346 19.9993 13.3346C22.1051 13.3346 23.956 13.6212 25.2345 14.0473C25.8701 14.2592 26.2935 14.4824 26.5335 14.668C26.2935 14.8536 25.8701 15.0768 25.2345 15.2886C23.956 15.7149 22.1051 16.0013 19.9993 16.0013C17.8936 16.0013 16.0427 15.7149 14.7641 15.2886Z" fill="#007FFF"/>
<path d="M29.3327 21.673C28.6903 22.0584 27.9417 22.3724 27.1569 22.6275C24.9915 23.3312 22.2873 23.6698 19.9989 23.6698C17.7096 23.6698 15.0093 23.328 12.8483 22.6226C12.0604 22.3654 11.3093 22.0487 10.666 21.6602V25.3347C10.666 26.2866 11.2459 26.9811 11.8027 27.4199C12.3745 27.8706 13.1193 28.218 13.9208 28.4852C15.5377 29.0242 17.6868 29.3347 19.9993 29.3347C22.3119 29.3347 24.4609 29.0242 26.0779 28.4852C26.8793 28.218 27.6241 27.8706 28.196 27.4199C28.7528 26.9811 29.3327 26.2866 29.3327 25.3347V21.673Z" fill="#007FFF"/>
<path fill-rule="evenodd" clip-rule="evenodd" d="M20.0007 8.66536V5.33203C20.0007 4.38019 19.4208 3.68562 18.864 3.24683C18.2921 2.79618 17.5473 2.44867 16.7458 2.1815C15.1289 1.64251 12.9799 1.33203 10.6673 1.33203C8.35474 1.33203 6.20577 1.64251 4.58882 2.1815C3.78732 2.44867 3.04252 2.79618 2.4707 3.24683C1.91392 3.68562 1.33398 4.38019 1.33398 5.33203V10.0023C1.38662 10.086 1.51236 10.2429 1.81225 10.4639C2.28388 10.8114 2.99184 11.1687 3.8566 11.4914C5.55914 12.1268 7.64958 12.5479 9.21816 12.561C9.60974 11.8612 10.1397 11.3454 10.5661 11.0093C11.3883 10.3614 12.3715 9.92354 13.2897 9.61747C15.1605 8.99387 17.5329 8.66536 20.0007 8.66536ZM5.4321 5.95274C4.79646 5.74086 4.37314 5.51766 4.13312 5.33203C4.37314 5.1464 4.79646 4.9232 5.4321 4.71132C6.71058 4.28516 8.56161 3.9987 10.6673 3.9987C12.773 3.9987 14.624 4.28516 15.9025 4.71132C16.5381 4.9232 16.9615 5.1464 17.2015 5.33203C16.9615 5.51766 16.5381 5.74086 15.9025 5.95274C14.624 6.3789 12.773 6.66536 10.6673 6.66536C8.56161 6.66536 6.71058 6.3789 5.4321 5.95274Z" fill="#007FFF"/>
<path d="M1.33398 16.3931V12.5312C1.88078 12.8432 2.50558 13.1227 3.1573 13.366C4.85925 14.0012 6.92489 14.454 8.66896 14.5452C8.66786 14.5852 8.66732 14.6255 8.66732 14.6661V18.5589C7.16157 18.4783 5.31993 18.1388 3.78992 17.6359C2.90692 17.3455 2.18637 17.0196 1.70788 16.6956C1.52502 16.5719 1.40833 16.4701 1.33398 16.3931Z" fill="#007FFF"/>
<path d="M1.33398 18.7891V21.3324C1.33398 22.2843 1.91392 22.9788 2.4707 23.4176C3.04252 23.8683 3.78732 24.2157 4.58882 24.4829C5.7274 24.8624 7.12978 25.1287 8.66732 25.2531V20.5609C6.94424 20.4803 4.88068 20.0993 3.16529 19.5353C2.51413 19.3213 1.8866 19.0724 1.33398 18.7891Z" fill="#007FFF"/>
</svg>
