<svg width="65" height="65" viewBox="0 0 65 65" fill="none" xmlns="http://www.w3.org/2000/svg">
<g clip-path="url(#clip0_1490_1032)">
<path d="M35 23.5H31V41H35C37.1 41 39.6 36.3 39.6 33.5V31.6C39.5 29 37.5 23.5 35 23.5Z" fill="url(#paint0_linear_1490_1032)"/>
<path d="M32.5 0C14.6 0 0 14.6 0 32.5C0 50.4 14.6 65 32.5 65C50.4 65 65 50.4 65 32.5C65 14.6 50.4 0 32.5 0ZM50 33.5C50 36.6 49.3 39.8 47.8 42.2C46.4 44.5 44.4 46.7 41.7 48C39.4 49 36.8 49 33.9 49C33.6 49 33.4 49 33.1 49H17V41H21.6V23.5H17V16H32.7C32.8 16 32.9 16 33 16H33.1C37.4 16 39.2 16.4 41.7 17.6C44.3 18.9 46.4 21 47.8 23.3C49.2 25.6 50 28.3 50 31.4V33.5Z" fill="url(#paint1_linear_1490_1032)"/>
</g>
<defs>
<linearGradient id="paint0_linear_1490_1032" x1="32.5" y1="6.64166e-07" x2="32.5" y2="65" gradientUnits="userSpaceOnUse">
<stop stop-color="#E0CD81"/>
<stop offset="1" stop-color="#BB9F32"/>
</linearGradient>
<linearGradient id="paint1_linear_1490_1032" x1="32.5" y1="0" x2="32.5" y2="65" gradientUnits="userSpaceOnUse">
<stop stop-color="#E0CD81"/>
<stop offset="1" stop-color="#BB9F32"/>
</linearGradient>
<clipPath id="clip0_1490_1032">
<rect width="65" height="65" fill="white"/>
</clipPath>
</defs>
</svg>
