<svg width="29" height="29" viewBox="0 0 29 29" fill="none" xmlns="http://www.w3.org/2000/svg">
<g clip-path="url(#clip0_69_18840)">
<path fill-rule="evenodd" clip-rule="evenodd" d="M12.5823 10.1613C13.7449 9.79433 16.1252 9.043 16.6339 10.8161C17.1305 12.5499 14.6241 13.2242 13.4751 13.5333C13.3707 13.5613 13.2776 13.5864 13.1989 13.609L12.2405 10.2664C12.336 10.239 12.4514 10.2026 12.5823 10.1613ZM14.7391 18.9816L13.6827 15.296C13.7968 15.2633 13.9344 15.2203 14.0902 15.1716C15.4853 14.7357 18.3445 13.8423 18.9035 15.7925C19.4512 17.6995 16.4431 18.517 15.067 18.891C14.9432 18.9246 14.8327 18.9546 14.7391 18.9816ZM18.2845 20.1293L19.0801 22.9062L17.4061 23.3864L16.6213 20.6466C16.1876 20.7714 15.7422 20.8951 15.2803 21.0173L16.0695 23.7695L14.3972 24.2488L13.5989 21.4674C13.2064 21.5772 12.8056 21.6846 12.4 21.8006L10.2214 22.4252L9.98073 20.3306C9.98073 20.3306 11.2247 19.9948 11.1978 19.982C11.6713 19.8453 11.6992 19.4691 11.6678 19.2471L10.4095 14.8576C10.4708 14.8396 10.5306 14.8227 10.5863 14.8067C10.5146 14.817 10.4529 14.8327 10.406 14.8458L9.50749 11.7127C9.3459 11.3913 9.01226 11.061 8.33415 11.2552C8.34821 11.2265 7.11861 11.6046 7.11861 11.6046L6.60549 9.81677L8.91473 9.15548L8.91741 9.16391C9.26439 9.06415 9.61845 8.95542 9.97872 8.84411L9.19095 6.09437L10.8642 5.61458L11.6369 8.31028C12.0813 8.17309 12.5287 8.0355 12.9688 7.90919L12.2007 5.23138L13.8748 4.75123L14.6636 7.50154C16.8788 7.07123 18.781 7.24509 19.5401 9.17328C20.0982 10.5834 19.741 11.6282 18.9122 12.4008C20.6198 12.3263 21.8932 12.9889 22.306 15.1737C22.8193 17.8868 21.0527 19.1607 18.2845 20.1293ZM14.5 0C6.49181 0 0 6.49181 0 14.5C0 22.5081 6.49181 29 14.5 29C22.5082 29 29 22.5081 29 14.5C29 6.49181 22.5082 0 14.5 0Z" fill="url(#paint0_linear_69_18840)"/>
</g>
<defs>
<linearGradient id="paint0_linear_69_18840" x1="0" y1="0" x2="0" y2="29" gradientUnits="userSpaceOnUse">
<stop stop-color="#FFB862"/>
<stop offset="1" stop-color="#F7931A"/>
</linearGradient>
<clipPath id="clip0_69_18840">
<rect width="29" height="29" fill="white"/>
</clipPath>
</defs>
</svg>
