<svg width="29" height="29" viewBox="0 0 29 29" fill="none" xmlns="http://www.w3.org/2000/svg">
<g clip-path="url(#clip0_69_18900)">
<path d="M14.5 29C22.5081 29 29 22.5081 29 14.5C29 6.49187 22.5081 0 14.5 0C6.49187 0 0 6.49187 0 14.5C0 22.5081 6.49187 29 14.5 29Z" fill="#26A17B"/>
<path fill-rule="evenodd" clip-rule="evenodd" d="M16.2414 15.7533V15.7515C16.1417 15.7587 15.6279 15.7896 14.4815 15.7896C13.5662 15.7896 12.9218 15.7624 12.6953 15.7515V15.7542C9.17177 15.5993 6.54183 14.9857 6.54183 14.2517C6.54183 13.5185 9.17177 12.905 12.6953 12.7473V15.1434C12.9255 15.1597 13.5852 15.1987 14.4969 15.1987C15.5907 15.1987 16.139 15.1534 16.2414 15.1443V12.7491C19.7577 12.9059 22.3813 13.5194 22.3813 14.2517C22.3813 14.9857 19.7577 15.5974 16.2414 15.7533ZM16.2414 12.4999V10.3557H21.1479V7.08594H7.78883V10.3557H12.6953V12.499C8.70777 12.682 5.70898 13.4723 5.70898 14.4184C5.70898 15.3645 8.70777 16.1539 12.6953 16.3378V23.209H16.2414V16.336C20.2226 16.153 23.2141 15.3636 23.2141 14.4184C23.2141 13.4732 20.2226 12.6838 16.2414 12.4999Z" fill="white"/>
</g>
<defs>
<clipPath id="clip0_69_18900">
<rect width="29" height="29" fill="white"/>
</clipPath>
</defs>
</svg>
