<svg width="36" height="36" viewBox="0 0 36 36" fill="none" xmlns="http://www.w3.org/2000/svg">
<path fill-rule="evenodd" clip-rule="evenodd" d="M3.00006 7.5L12.0001 7.50014C12.5016 7.50015 12.9699 7.7508 13.2481 8.16809L24.8028 25.5H31.5C32.079 25.5 32.6063 25.8331 32.8548 26.356C33.1033 26.8788 33.0288 27.4981 32.6632 27.9471L29.25 32.25L26.9235 30.356L28.3446 28.5H24C23.4986 28.5 23.0301 28.2494 22.752 27.8321L11.1972 10.5001L3 10.5L3.00006 7.5Z" fill="white"/>
<path fill-rule="evenodd" clip-rule="evenodd" d="M3.00006 28.5L12.0001 28.4999C12.5016 28.4999 12.9699 28.2492 13.2481 27.8319L16.2481 23.3319L13.752 21.6678L11.1972 25.4999L3 25.5L3.00006 28.5ZM22.752 8.16795L19.752 12.6679L22.2481 14.332L24.8028 10.5H31.5C32.079 10.5 32.6063 10.1668 32.8548 9.64399C33.1033 9.12114 33.0288 8.50192 32.6632 8.05296L29.25 3.75L26.9235 5.64407L28.3446 7.5H24C23.4986 7.5 23.0301 7.75065 22.752 8.16795Z" fill="white"/>
</svg>
