<svg width="129" height="129" viewBox="0 0 129 129" fill="none" xmlns="http://www.w3.org/2000/svg">
<g clip-path="url(#clip0_1546_960)">
<path fill-rule="evenodd" clip-rule="evenodd" d="M55.9693 45.2002C61.141 43.5679 71.7296 40.2258 73.992 48.113C76.2013 55.8254 65.0521 58.8248 59.9411 60.1997C59.4767 60.3246 59.0624 60.4361 58.7123 60.5365L54.4489 45.6678C54.874 45.5457 55.3874 45.3838 55.9693 45.2002ZM65.5636 84.4353L60.8644 68.0407C61.3718 67.8955 61.9839 67.7042 62.6771 67.4876C68.883 65.5483 81.6012 61.5743 84.0882 70.2494C86.5245 78.7325 73.1436 82.3687 67.022 84.0322C66.4715 84.1818 65.9797 84.3154 65.5636 84.4353ZM81.3343 89.5407L84.8735 101.893L77.427 104.029L73.9361 91.8419C72.0068 92.3969 70.0256 92.9473 67.9709 93.4909L71.4815 105.733L64.0425 107.865L60.4915 95.4929C58.7458 95.9814 56.9626 96.4593 55.1586 96.9749L45.4675 99.7535L44.397 90.4359C44.397 90.4359 49.9305 88.9425 49.8109 88.8854C51.9171 88.2773 52.0414 86.6038 51.9015 85.6165L46.3044 66.0907C46.5771 66.0107 46.8429 65.9357 47.091 65.8644C46.7716 65.9103 46.4976 65.9799 46.289 66.0383L42.292 52.1011C41.5731 50.6716 40.089 49.2022 37.0726 50.0661C37.1351 49.9387 31.6655 51.6204 31.6655 51.6204L29.383 43.6677L39.6552 40.7261L39.6671 40.7636C41.2105 40.3198 42.7855 39.8362 44.3881 39.341L40.8839 27.1094L48.327 24.9752L51.7641 36.9664C53.7408 36.3562 55.731 35.7441 57.6888 35.1823L54.2723 23.2706L61.719 21.1348L65.2276 33.3689C75.0816 31.4548 83.543 32.2282 86.9198 40.8053C89.4022 47.0779 87.8135 51.7254 84.1267 55.1622C91.7226 54.8308 97.3871 57.7781 99.2232 67.4968C101.506 79.5656 93.6482 85.2321 81.3343 89.5407ZM64.5002 0C28.8773 0 0 28.8773 0 64.5C0 100.122 28.8773 129 64.5002 129C100.123 129 129 100.122 129 64.5C129 28.8773 100.123 0 64.5002 0Z" fill="url(#paint0_linear_1546_960)"/>
</g>
<defs>
<linearGradient id="paint0_linear_1546_960" x1="0" y1="0" x2="0" y2="129" gradientUnits="userSpaceOnUse">
<stop stop-color="#FFB862"/>
<stop offset="1" stop-color="#F7931A"/>
</linearGradient>
<clipPath id="clip0_1546_960">
<rect width="129" height="129" fill="white"/>
</clipPath>
</defs>
</svg>
