<svg width="52" height="52" viewBox="0 0 52 52" fill="none" xmlns="http://www.w3.org/2000/svg">
<path d="M26.0006 2.70703C38.8644 2.70703 49.2923 13.1351 49.2923 25.9987C49.2923 38.8624 38.8644 49.2904 26.0006 49.2904C13.137 49.2904 2.70898 38.8624 2.70898 25.9987C2.70898 13.1351 13.137 2.70703 26.0006 2.70703ZM26.0006 15.1654C24.804 15.1654 23.834 16.1354 23.834 17.332V23.832H17.334C16.1374 23.832 15.1673 24.802 15.1673 25.9987C15.1673 27.1953 16.1374 28.1654 17.334 28.1654H23.834V34.6654C23.834 35.862 24.804 36.832 26.0006 36.832C27.1973 36.832 28.1673 35.862 28.1673 34.6654V28.1654H34.6673C35.864 28.1654 36.834 27.1953 36.834 25.9987C36.834 24.802 35.864 23.832 34.6673 23.832H28.1673V17.332C28.1673 16.1354 27.1973 15.1654 26.0006 15.1654Z" fill="#007FFF"/>
</svg>
