<svg width="41" height="41" viewBox="0 0 41 41" fill="none" xmlns="http://www.w3.org/2000/svg">
<path fill-rule="evenodd" clip-rule="evenodd" d="M17.7887 14.366C19.4324 13.8472 22.7978 12.7849 23.5168 15.2917C24.219 17.743 20.6755 18.6963 19.0511 19.1332C18.9035 19.1729 18.7718 19.2084 18.6605 19.2403L17.3055 14.5146C17.4406 14.4758 17.6038 14.4243 17.7887 14.366ZM20.838 26.836L19.3445 21.6254C19.5058 21.5792 19.7003 21.5184 19.9206 21.4496C21.8931 20.8332 25.9353 19.5701 26.7257 22.3273C27.5 25.0235 23.2472 26.1792 21.3016 26.7079C21.1266 26.7555 20.9703 26.7979 20.838 26.836ZM25.8504 28.4587L26.9753 32.3846L24.6086 33.0635L23.4991 29.19C22.8859 29.3665 22.2562 29.5414 21.6032 29.7142L22.7189 33.6052L20.3546 34.2828L19.226 30.3505C18.6711 30.5057 18.1044 30.6576 17.531 30.8215L14.4509 31.7046L14.1107 28.7432C14.1107 28.7432 15.8694 28.2686 15.8314 28.2504C16.5008 28.0571 16.5403 27.5253 16.4958 27.2114L14.7169 21.0056C14.8036 20.9801 14.888 20.9563 14.9669 20.9337C14.8654 20.9482 14.7783 20.9704 14.712 20.9889L13.4416 16.5593C13.2132 16.1049 12.7415 15.6379 11.7828 15.9125C11.8026 15.872 10.0642 16.4065 10.0642 16.4065L9.33879 13.8789L12.6036 12.944L12.6074 12.9559C13.0979 12.8148 13.5985 12.6611 14.1078 12.5037L12.9941 8.61618L15.3597 7.93785L16.4522 11.749C17.0804 11.5551 17.7129 11.3605 18.3352 11.182L17.2493 7.39608L19.6161 6.71725L20.7312 10.6056C23.8631 9.99725 26.5524 10.2431 27.6257 12.9691C28.4146 14.9627 27.9097 16.4399 26.7379 17.5322C29.1521 17.4268 30.9525 18.3636 31.5361 21.4525C32.2617 25.2883 29.7642 27.0893 25.8504 28.4587ZM20.5001 0C9.17807 0 0 9.17807 0 20.5C0 31.8218 9.17807 41 20.5001 41C31.8219 41 41 31.8218 41 20.5C41 9.17807 31.8219 0 20.5001 0Z" fill="url(#paint0_linear_1541_1095)"/>
<defs>
<linearGradient id="paint0_linear_1541_1095" x1="0" y1="0" x2="0" y2="41" gradientUnits="userSpaceOnUse">
<stop stop-color="#FFB862"/>
<stop offset="1" stop-color="#F7931A"/>
</linearGradient>
</defs>
</svg>
