<svg width="129" height="129" viewBox="0 0 129 129" fill="none" xmlns="http://www.w3.org/2000/svg">
<path fill-rule="evenodd" clip-rule="evenodd" d="M64.4923 109.597L36.3077 70.5838L64.4923 86.9387V86.9424L92.6917 70.5838L64.4923 109.597ZM64.4923 54.569L92.673 67.1538L64.4923 83.5166L36.3077 67.1538L64.4923 54.569ZM64.4923 19.403L92.673 65.3365L64.4923 52.7443L36.3077 65.3365L64.4923 19.403ZM64.5 0C28.8773 0 0 28.8777 0 64.5C0 100.122 28.8773 129 64.5 129C100.122 129 129 100.122 129 64.5C129 28.8777 100.122 0 64.5 0Z" fill="url(#paint0_linear_1546_1339)"/>
<defs>
<linearGradient id="paint0_linear_1546_1339" x1="1.30347" y1="0" x2="1.30347" y2="126.393" gradientUnits="userSpaceOnUse">
<stop stop-color="#76D4FF"/>
<stop offset="1" stop-color="#627EEA"/>
</linearGradient>
</defs>
</svg>
