<svg width="129" height="129" viewBox="0 0 129 129" fill="none" xmlns="http://www.w3.org/2000/svg">
<path d="M64.5 0C28.9754 0 0 28.9754 0 64.5C0 100.025 28.9754 129 64.5 129C100.025 129 129 100.025 129 64.5C129 28.9754 100.025 0 64.5 0ZM92.2846 97.2462L74.0262 78.3923C69.2631 73.6292 61.5231 73.6292 56.9585 78.3923L38.7 97.2462H27.7846L51.0046 73.0338C58.7446 64.8969 71.8431 64.8969 79.5831 73.0338L103.2 97.2462H92.2846ZM79.7815 55.9662C72.0415 64.1031 58.9431 64.1031 51.2031 55.9662L27.7846 31.7538H38.7L56.9585 50.6077C61.7215 55.3708 69.4615 55.3708 74.0262 50.6077L92.2846 31.7538H103.2L79.7815 55.9662Z" fill="url(#paint0_linear_1546_1513)"/>
<defs>
<linearGradient id="paint0_linear_1546_1513" x1="64.5" y1="0" x2="64.5" y2="129" gradientUnits="userSpaceOnUse">
<stop stop-color="#8092A5"/>
<stop offset="1" stop-color="#1B1D2D"/>
</linearGradient>
</defs>
</svg>
