<svg width="36" height="36" viewBox="0 0 36 36" fill="none" xmlns="http://www.w3.org/2000/svg">
<path opacity="0.4" d="M18 31.5C25.4559 31.5 31.5 25.0528 31.5 17.1C31.5 16.3867 31.4514 15.6855 31.3575 15H4.64252C4.54862 15.6855 4.5 16.3867 4.5 17.1C4.5 25.0528 10.5441 31.5 18 31.5Z" fill="white"/>
<path d="M4.64252 15C4.54862 15.6855 4.5 16.3867 4.5 17.1C4.5 25.0528 10.5441 31.5 18 31.5C25.4559 31.5 31.5 25.0528 31.5 17.1C31.5 16.3867 31.4514 15.6855 31.3575 15" stroke="white" stroke-width="1.5" stroke-linecap="round"/>
<path d="M18 4.5V19.5M18 4.5C16.9497 4.5 14.9873 7.49145 14.25 8.25M18 4.5C19.0503 4.5 21.0128 7.49145 21.75 8.25" stroke="white" stroke-width="1.5" stroke-linecap="round" stroke-linejoin="round"/>
</svg>
