<svg width="36" height="36" viewBox="0 0 36 36" fill="none" xmlns="http://www.w3.org/2000/svg">
<path opacity="0.4" d="M18 4.5C10.5441 4.5 4.50002 10.9471 4.50002 18.9C4.50002 19.6132 4.54861 20.3145 4.64251 21L31.3575 21C31.4514 20.3145 31.5 19.6133 31.5 18.9C31.5 10.9472 25.4559 4.5 18 4.5Z" fill="white"/>
<path d="M31.3575 21C31.4514 20.3145 31.5 19.6133 31.5 18.9C31.5 10.9472 25.4559 4.5 18 4.5C10.5441 4.5 4.50002 10.9471 4.50001 18.9C4.50001 19.6132 4.54861 20.3145 4.64251 21" stroke="white" stroke-width="1.5" stroke-linecap="round"/>
<path d="M18 31.5L18 16.5M18 31.5C19.0503 31.5 21.0127 28.5085 21.75 27.75M18 31.5C16.9497 31.5 14.9873 28.5085 14.25 27.75" stroke="white" stroke-width="1.5" stroke-linecap="round" stroke-linejoin="round"/>
</svg>
