<svg width="24" height="24" viewBox="0 0 24 24" fill="none" xmlns="http://www.w3.org/2000/svg">
<path d="M4.11611 18.1161C3.62796 18.6042 3.62796 19.3957 4.11611 19.8839C4.60427 20.372 5.39573 20.372 5.88388 19.8839L19.8839 5.88388C20.3721 5.39573 20.3721 4.60427 19.8839 4.11611C19.3958 3.62796 18.6043 3.62796 18.1161 4.11611L4.11611 18.1161Z" fill="white"/>
<path d="M5.88388 4.11611C5.39573 3.62796 4.60427 3.62796 4.11611 4.11611C3.62796 4.60427 3.62796 5.39573 4.11611 5.88388L18.1161 19.8839C18.6042 20.372 19.3957 20.372 19.8838 19.8839C20.372 19.3957 20.372 18.6042 19.8838 18.1161L5.88388 4.11611Z" fill="white"/>
</svg>
