<svg width="28" height="28" viewBox="0 0 28 28" fill="none" xmlns="http://www.w3.org/2000/svg">
<path fill-rule="evenodd" clip-rule="evenodd" d="M14 0.5625C6.57868 0.5625 0.5625 6.57868 0.5625 14C0.5625 21.4214 6.57868 27.4375 14 27.4375C21.4214 27.4375 27.4375 21.4214 27.4375 14C27.4375 6.57868 21.4214 0.5625 14 0.5625ZM13.9894 6.8125C11.7446 6.8125 9.92249 8.63009 9.92249 10.875C9.92249 13.1199 11.7446 14.9375 13.9894 14.9375C16.2343 14.9375 18.0564 13.1199 18.0564 10.875C18.0564 8.63009 16.2343 6.8125 13.9894 6.8125ZM20.3144 19.6146C16.9801 15.9969 10.9632 16.1816 7.69695 19.6026C7.43783 19.874 7.3655 20.2738 7.5131 20.6187C7.66069 20.9638 7.99979 21.1875 8.37502 21.1875H19.625C19.9972 21.1875 20.3342 20.9672 20.4836 20.6264C20.6331 20.2854 20.5666 19.8884 20.3144 19.6146Z" fill="#007FFF"/>
</svg>
