<svg width="22" height="22" viewBox="0 0 22 22" fill="none" xmlns="http://www.w3.org/2000/svg">
<g clip-path="url(#clip0_1541_859)">
<path fill-rule="evenodd" clip-rule="evenodd" d="M15.3935 15.3935C15.7514 15.0355 16.3319 15.0355 16.6898 15.3935L20.8148 19.5185C21.1728 19.8764 21.1728 20.4569 20.8148 20.8148C20.4569 21.1728 19.8764 21.1728 19.5185 20.8148L15.3935 16.6898C15.0355 16.3319 15.0355 15.7514 15.3935 15.3935Z" fill="#3E3859"/>
<path fill-rule="evenodd" clip-rule="evenodd" d="M0.916992 10.0832C0.916992 5.02056 5.02105 0.916504 10.0837 0.916504C15.1462 0.916504 19.2503 5.02056 19.2503 10.0832C19.2503 15.1457 15.1462 19.2498 10.0837 19.2498C5.02105 19.2498 0.916992 15.1457 0.916992 10.0832ZM10.0837 2.74984C6.03357 2.74984 2.75033 6.03308 2.75033 10.0832C2.75033 14.1333 6.03357 17.4165 10.0837 17.4165C14.1338 17.4165 17.417 14.1333 17.417 10.0832C17.417 6.03308 14.1338 2.74984 10.0837 2.74984Z" fill="#3E3859"/>
</g>
<defs>
<clipPath id="clip0_1541_859">
<rect width="22" height="22" fill="white"/>
</clipPath>
</defs>
</svg>
