<svg width="32" height="32" viewBox="0 0 32 32" fill="none" xmlns="http://www.w3.org/2000/svg">
<path fill-rule="evenodd" clip-rule="evenodd" d="M20.6673 2.33203C15.6968 2.33203 11.6673 6.36147 11.6673 11.332C11.6673 12.4028 11.8547 13.4315 12.199 14.3862L2.62688 23.9583C2.43934 24.1458 2.33398 24.4002 2.33398 24.6654V28.6654C2.33398 29.2176 2.7817 29.6654 3.33398 29.6654H7.33398C7.88626 29.6654 8.33398 29.2176 8.33398 28.6654V26.332H10.6673C11.2196 26.332 11.6673 25.8843 11.6673 25.332V22.9987H14.0007C14.2659 22.9987 14.5203 22.8934 14.7077 22.7058L17.6132 19.8003C18.5679 20.1446 19.5965 20.332 20.6673 20.332C25.6379 20.332 29.6673 16.3026 29.6673 11.332C29.6673 6.36147 25.6379 2.33203 20.6673 2.33203ZM24.0411 9.37247C24.4316 8.98195 24.4316 8.34878 24.0411 7.95826C23.6505 7.56774 23.0175 7.56774 22.6269 7.95826L21.2936 9.29159C20.9031 9.68211 20.9031 10.3153 21.2936 10.7058C21.6841 11.0963 22.3172 11.0963 22.7077 10.7058L24.0411 9.37247Z" fill="#007FFF"/>
</svg>
