<svg width="32" height="32" viewBox="0 0 32 32" fill="none" xmlns="http://www.w3.org/2000/svg">
<path d="M14.4451 2.05292C15.4145 1.53965 16.5855 1.53965 17.5549 2.05292C19.1575 2.90143 22.4405 4.42897 26.3781 5.11344C27.8307 5.36596 29 6.60768 29 8.16564V14.7361C29 19.3905 26.6272 22.946 24.0105 25.4458C21.3972 27.9425 18.464 29.4646 17.1288 30.0838C16.4076 30.4182 15.5924 30.4182 14.8712 30.0838C13.536 29.4646 10.6027 27.9425 7.98952 25.4458C5.37285 22.946 3 19.3905 3 14.7361V8.16564C3 6.60768 4.16928 5.36596 5.62192 5.11344C9.55947 4.42897 12.8425 2.90143 14.4451 2.05292Z" fill="#007FFF"/>
</svg>
