<svg width="44" height="44" viewBox="0 0 44 44" fill="none" xmlns="http://www.w3.org/2000/svg">
<path fill-rule="evenodd" clip-rule="evenodd" d="M3.66658 9.16666L14.6666 9.16682C15.2795 9.16684 15.8519 9.47319 16.192 9.98321L30.3144 31.1667H38.4998C39.2075 31.1667 39.8519 31.5738 40.1557 32.2129C40.4595 32.8519 40.3684 33.6088 39.9216 34.1576L35.7498 39.4167L32.9063 37.1017L34.6432 34.8333H29.3332C28.7203 34.8333 28.1477 34.527 27.8078 34.0169L13.6854 12.8335L3.6665 12.8333L3.66658 9.16666Z" fill="url(#paint0_linear_107_597)"/>
<path fill-rule="evenodd" clip-rule="evenodd" d="M3.66658 34.8333L14.6666 34.8332C15.2795 34.8332 15.8519 34.5268 16.192 34.0168L19.8587 28.5168L16.8078 26.4829L13.6854 31.1665L3.6665 31.1667L3.66658 34.8333ZM27.8078 9.98306L24.1412 15.483L27.192 17.5169L30.3144 12.8333H38.4998C39.2075 12.8333 39.8519 12.4262 40.1557 11.7871C40.4595 11.1481 40.3684 10.3913 39.9216 9.84252L35.7498 4.58334L32.9063 6.89831L34.6432 9.16668H29.3332C28.7203 9.16668 28.1477 9.47303 27.8078 9.98306Z" fill="url(#paint1_linear_107_597)"/>
<defs>
<linearGradient id="paint0_linear_107_597" x1="3.6665" y1="24.2917" x2="40.3333" y2="24.2917" gradientUnits="userSpaceOnUse">
<stop stop-color="#F7931A"/>
<stop offset="1" stop-color="#2602FF"/>
</linearGradient>
<linearGradient id="paint1_linear_107_597" x1="3.6665" y1="19.7083" x2="40.3333" y2="19.7083" gradientUnits="userSpaceOnUse">
<stop stop-color="#F7931A"/>
<stop offset="1" stop-color="#2602FF"/>
</linearGradient>
</defs>
</svg>
