<svg width="65" height="65" viewBox="0 0 65 65" fill="none" xmlns="http://www.w3.org/2000/svg">
<path d="M32.5 0C14.6 0 0 14.6 0 32.5C0 50.4 14.6 65 32.5 65C50.4 65 65 50.4 65 32.5C65 14.6 50.4 0 32.5 0ZM36.1 35.5V49.2H29V35.5C21 35.1 15 33.6 15 31.7C15 29.8 21 28.2 29 27.9V23.6H19.2V17H45.9V23.5H36.1V27.8C44.1 28.2 50 29.7 50 31.6C50 33.6 44 35.1 36.1 35.5Z" fill="url(#paint0_linear_1490_1014)"/>
<defs>
<linearGradient id="paint0_linear_1490_1014" x1="32.5" y1="0" x2="32.5" y2="65" gradientUnits="userSpaceOnUse">
<stop stop-color="#8BEECA"/>
<stop offset="1" stop-color="#26A17B"/>
</linearGradient>
</defs>
</svg>
