<svg width="85" height="85" viewBox="0 0 85 85" fill="none" xmlns="http://www.w3.org/2000/svg">
<path fill-rule="evenodd" clip-rule="evenodd" d="M7.96925 14.1663C7.96928 8.78726 12.3299 4.42676 17.7088 4.42676H60.2083C65.5874 4.42676 69.9479 8.78733 69.9479 14.1663V42.0378C66.5617 40.0789 62.6305 38.958 58.4375 38.958C45.7233 38.958 35.4167 49.2646 35.4167 61.9788C35.4167 69.6161 39.1358 76.3849 44.8616 80.5726H17.7083C12.3293 80.5726 7.96871 76.2121 7.96875 70.833L7.96925 14.1663ZM24.7917 22.1351C23.3247 22.1351 22.1354 23.3243 22.1354 24.7913C22.1354 26.2583 23.3247 27.4476 24.7917 27.4476H53.125C54.592 27.4476 55.7812 26.2583 55.7812 24.7913C55.7812 23.3243 54.592 22.1351 53.125 22.1351H24.7917ZM24.7917 36.3018C23.3247 36.3018 22.1354 37.491 22.1354 38.958C22.1354 40.425 23.3247 41.6143 24.7917 41.6143H38.9583C40.4253 41.6143 41.6146 40.425 41.6146 38.958C41.6146 37.491 40.4253 36.3018 38.9583 36.3018H24.7917Z" fill="#1E1C2F"/>
<path fill-rule="evenodd" clip-rule="evenodd" d="M58.4375 43.3857C48.1684 43.3857 39.8438 51.7104 39.8438 61.9795C39.8438 72.2486 48.1684 80.5732 58.4375 80.5732C68.7066 80.5732 77.0312 72.2486 77.0312 61.9795C77.0312 51.7104 68.7066 43.3857 58.4375 43.3857ZM61.0938 54.8962C61.0938 53.4292 59.9045 52.2399 58.4375 52.2399C56.9705 52.2399 55.7812 53.4292 55.7812 54.8962V63.5732C55.7812 64.6875 56.4768 65.6834 57.523 66.0673L62.8355 68.0152C64.2129 68.5202 65.739 67.813 66.244 66.4356C66.7491 65.0583 66.0418 63.5322 64.6645 63.0271L61.0938 61.7181V54.8962Z" fill="#1E1C2F"/>
</svg>
