<svg width="65" height="65" viewBox="0 0 65 65" fill="none" xmlns="http://www.w3.org/2000/svg">
<g clip-path="url(#clip0_1490_1035)">
<path d="M32.5 0C14.6 0 0 14.6 0 32.5C0 50.4 14.6 65 32.5 65C50.4 65 65 50.4 65 32.5C65 14.6 50.4 0 32.5 0ZM48.4 27V27.1L48.3 27.2C47.2 28.9 46 30.6 44.9 32.2L42.9 35.2C41.2 37.6 39.6 40.1 38 42.5L31.2 52.5C31 52.8 30.7 53 30.3 53H30.2C29.8 53 29.5 52.7 29.4 52.4C27.6 47.3 25.8 42.1 24 37.1C21.7 30.6 19.3 23.9 17 17.2V17.1V16.7V16.6C17.1 16.4 17.2 16.3 17.3 16.1L17.4 16C17.5 15.9 17.6 15.9 17.7 15.9C18.1 15.8 18.5 16 18.8 16L19.1 16.1L30.2 19C34.3 20 38.5 21 42.6 22.1C42.8 22.2 43 22.3 43.2 22.4L43.3 22.5C44.8 23.6 46.4 24.7 47.9 25.8C48.5 26.1 48.5 26.7 48.4 27Z" fill="url(#paint0_linear_1490_1035)"/>
<path d="M23.4 19.3C24.3 19.5 25.2 19.7 26 20L40.9 23.7C39.2 25.5 37.6 27.3 36 29.1C34.8 30.4 33.5 31.8 32.3 33.2C29.9 30.2 27.4 27.2 25 24.2L21.7 20.2C21.5 19.9 21.2 19.6 21 19.3C20.8 19.1 20.7 18.9 20.5 18.7C21.4 18.8 22.4 19.1 23.4 19.3ZM31.1 37C31 37.6 31 38.2 30.9 38.8C30.9 39.2 30.8 39.6 30.8 40L30.6 41.7V41.8C30.4 43.6 30.3 45.3 30.1 47C30 47.7 30 48.4 29.9 49.2C29.9 49.1 29.8 48.9 29.8 48.8C29.7 48.4 29.5 48.1 29.4 47.7L28.5 45.1L19.8 20.6C19.7 20.3 19.6 20 19.5 19.7C21.8 22.5 24.1 25.4 26.4 28.1C27.6 29.5 28.7 31 29.9 32.4C30.1 32.7 30.4 33 30.6 33.2C30.9 33.6 31.2 33.9 31.5 34.3C31.3 35.2 31.2 36.1 31.1 37ZM40 36.3C38.5 38.6 36.9 40.9 35.3 43.2C34.7 44.1 34 45.1 33.4 46C32.7 47 32 48 31.3 49.1C31.4 48.1 31.5 47 31.6 46C31.7 45.1 31.8 44.2 31.9 43.2C32 42.5 32.1 41.7 32.1 41C32.2 39.8 32.3 38.7 32.5 37.5V37.3C32.6 36.6 32.7 35.8 32.7 35C32.8 34.9 32.9 34.9 33 34.9C33.1 34.8 33.3 34.8 33.4 34.7C35.4 33.6 37.3 32.6 39.3 31.6C41.3 30.6 43.3 29.5 45.3 28.4C43.6 30.9 41.8 33.6 40 36.3ZM40 29.4C38.4 30.2 36.8 31.1 35.2 32L38.1 28.9C39.3 27.6 40.5 26.3 41.7 24.9C41.8 24.8 41.9 24.6 42.1 24.5C42.2 24.4 42.3 24.3 42.4 24.2C43 24.6 43.7 25.1 44.3 25.5C44.7 25.8 45.2 26.1 45.7 26.5C43.8 27.4 41.9 28.4 40 29.4Z" fill="url(#paint1_linear_1490_1035)"/>
</g>
<defs>
<linearGradient id="paint0_linear_1490_1035" x1="32.5" y1="0" x2="32.5" y2="65" gradientUnits="userSpaceOnUse">
<stop stop-color="#FC2D38"/>
<stop offset="1" stop-color="#A50009"/>
</linearGradient>
<linearGradient id="paint1_linear_1490_1035" x1="32.5192" y1="5.34122" x2="32.5192" y2="59.0915" gradientUnits="userSpaceOnUse">
<stop stop-color="#FC2D38"/>
<stop offset="1" stop-color="#A50009"/>
</linearGradient>
<clipPath id="clip0_1490_1035">
<rect width="65" height="65" fill="white"/>
</clipPath>
</defs>
</svg>
